<svg xmlns="http://www.w3.org/2000/svg" width="135" height="28" fill="none"><path fill="#FDFDFD" fill-rule="evenodd" d="M37 4.266v17.438h2.112v-6.78h4.15c3.882 0 6.166-2.013 6.166-5.378 0-3.316-2.284-5.28-6.165-5.28H37Zm6.263 8.596h-4.15V6.329h4.15c2.628 0 3.954 1.08 3.954 3.217 0 2.186-1.326 3.316-3.954 3.316Zm44.632-2.358v11.2h2.063v-11.2h3.266V8.687h-3.266V7.655c0-.982.491-1.572 1.523-1.572h1.915V4.266h-2.063c-2.358 0-3.438 1.326-3.438 3.242v1.179h-1.769v1.817h1.769Zm12.417 11.494c-3.61 0-5.968-2.653-5.968-6.804 0-4.15 2.358-6.803 5.968-6.803 3.586 0 5.944 2.653 5.944 6.803 0 4.151-2.358 6.804-5.944 6.804Zm0-1.965c2.383 0 3.783-1.818 3.783-4.839 0-3.02-1.4-4.838-3.783-4.838-2.407 0-3.807 1.818-3.807 4.838 0 3.021 1.4 4.839 3.807 4.839ZM117.39 8.686v13.017h2.063v-7.786c0-2.308 1.204-3.708 3.021-3.708 1.916 0 2.677 1.4 2.677 3.708v7.786h2.063v-7.786c0-2.333 1.179-3.708 2.997-3.708 1.793 0 2.726 1.203 2.726 3.56v7.934H135v-8.375c0-3.144-1.523-4.937-4.298-4.937-1.916 0-3.242.983-3.807 2.726-.565-1.743-1.94-2.726-3.905-2.726-1.67 0-3.021.983-3.66 2.58l-.049-2.285h-1.891Zm-8.323.002v13.017h2.064v-7.86c0-2.136.982-3.193 2.947-3.193h1.252V8.688h-1.277c-1.596 0-2.628.76-3.094 2.406l-.074-2.406h-1.818Zm-31.673 13.31c-2.702 0-4.396-1.302-4.396-3.537 0-2.21 1.252-3.438 4.101-3.979l4.617-.86c0-2.185-1.031-3.266-3.094-3.266-1.818 0-2.825.835-3.218 2.333l-2.185-.172c.49-2.456 2.456-4.126 5.403-4.126 3.34 0 5.158 2.014 5.158 5.305v5.379c0 .59.196.81.687.81h.516v1.818a5.78 5.78 0 0 1-.786.05c-1.572 0-2.284-.615-2.456-2.064-.638 1.35-2.431 2.309-4.347 2.309Zm.196-1.818c2.604 0 4.126-1.67 4.126-3.831v-.934l-4.224.786c-1.768.32-2.333.983-2.333 2.064 0 1.227.909 1.915 2.431 1.915ZM65.56 8.688v13.017h2.063v-7.86c0-2.136.983-3.193 2.947-3.193h1.253V8.688h-1.277c-1.597 0-2.628.76-3.095 2.406l-.074-2.406H65.56Zm-9.92 13.31c-2.701 0-4.396-1.302-4.396-3.537 0-2.21 1.253-3.438 4.102-3.979l4.617-.86c0-2.185-1.031-3.266-3.094-3.266-1.818 0-2.825.835-3.218 2.333l-2.186-.172c.492-2.456 2.456-4.126 5.404-4.126 3.34 0 5.157 2.014 5.157 5.305v5.379c0 .59.197.81.688.81h.516v1.818c-.148.024-.467.05-.786.05-1.572 0-2.284-.615-2.456-2.064-.639 1.35-2.432 2.309-4.347 2.309Zm.197-1.818c2.604 0 4.126-1.67 4.126-3.831v-.934l-4.224.786c-1.769.32-2.333.983-2.333 2.064 0 1.227.908 1.915 2.431 1.915Z" clip-rule="evenodd"/><circle cx="14" cy="14" r="14" fill="#FDFDFD"/><path fill="#000" fill-rule="evenodd" d="M11.16 7h9.607v2.79H11.16a1.396 1.396 0 0 1 0-2.79Zm-6.33 5.75h15.94v2.79H4.83a1.396 1.396 0 0 1 0-2.79Zm15.94 5.46h-6.228a1.396 1.396 0 0 0 0 2.79h6.228v-2.79Z" clip-rule="evenodd"/></svg>